<?xml version="1.0" encoding="UTF-8" standalone="no"?>
<svg
   xmlns:dc="http://purl.org/dc/elements/1.1/"
   xmlns:cc="http://creativecommons.org/ns#"
   xmlns:rdf="http://www.w3.org/1999/02/22-rdf-syntax-ns#"
   xmlns:svg="http://www.w3.org/2000/svg"
   xmlns="http://www.w3.org/2000/svg"
   xmlns:sodipodi="http://sodipodi.sourceforge.net/DTD/sodipodi-0.dtd"
   xmlns:inkscape="http://www.inkscape.org/namespaces/inkscape"
   sodipodi:docname="logo.svg"
   inkscape:version="1.0 (4035a4f, 2020-05-01)"
   id="svg8"
   version="1.1"
   viewBox="0 0 297 79"
   height="79mm"
   width="297mm">
  <defs
     id="defs2" />
  <sodipodi:namedview
     inkscape:window-maximized="0"
     inkscape:window-y="25"
     inkscape:window-x="0"
     inkscape:window-height="964"
     inkscape:window-width="1663"
     height="209mm"
     showgrid="false"
     inkscape:document-rotation="0"
     inkscape:current-layer="layer1"
     inkscape:document-units="mm"
     inkscape:cy="470.56666"
     inkscape:cx="409.59645"
     inkscape:zoom="0.35"
     inkscape:pageshadow="2"
     inkscape:pageopacity="0.0"
     borderopacity="1.0"
     bordercolor="#666666"
     pagecolor="#ffffff"
     id="base" />
  <metadata
     id="metadata5">
    <rdf:RDF>
      <cc:Work
         rdf:about="">
        <dc:format>image/svg+xml</dc:format>
        <dc:type
           rdf:resource="http://purl.org/dc/dcmitype/StillImage" />
        <dc:title></dc:title>
      </cc:Work>
    </rdf:RDF>
  </metadata>
  <g
     id="layer1"
     inkscape:groupmode="layer"
     inkscape:label="レイヤー 1">
    <path
       id="path92"
       d="m 233.16601,77.086508 c -0.057,-0.10074 -1.12408,-0.14188 -2.37126,-0.0915 -1.57026,0.0634 -2.40684,0.005 -2.72039,-0.18749 -0.24907,-0.1534 -0.63756,-0.28865 -0.86333,-0.30042 -1.06317,-0.0554 -1.2876,-0.12954 -1.71789,-0.5672 -0.32213,-0.32764 -0.612,-0.4278 -0.96117,-0.33212 -0.35568,0.0974 -0.60225,0.006 -0.85453,-0.31512 -0.19501,-0.24866 -0.50443,-0.45212 -0.68763,-0.45212 -0.73586,0 -1.42285,-1.88248 -1.42285,-3.89887 0,-0.72305 0.81342,-2.70855 1.29644,-3.16448 0.13349,-0.12608 0.3352,-0.39266 0.44808,-0.5924 0.41466,-0.73367 3.87328,-5.11621 4.03766,-5.11621 0.0933,0 0.16975,-0.11077 0.16975,-0.2462 0,-0.13546 0.25399,-0.53135 0.5644,-0.87985 0.31043,-0.34848 0.92887,-1.04435 1.37432,-1.54635 0.44543,-0.502 0.9191,-0.91272 1.05261,-0.91272 0.13348,0 0.363,-0.32769 0.51003,-0.72822 0.14699,-0.40053 0.73547,-1.26331 1.30765,-1.9173 2.55746,-2.92316 4.41334,-4.82018 5.15901,-5.27337 0.68554,-0.41664 1.28066,-1.26634 1.59428,-2.27629 0.041,-0.13216 0.20966,-0.0978 0.41083,0.0835 0.30258,0.2727 0.34123,0.24279 0.34123,-0.26408 0,-0.61269 0.47469,-1.27583 0.9133,-1.27583 0.27826,0 2.11268,-2.22002 2.47315,-2.99299 0.11291,-0.24206 0.38996,-0.4684 0.61572,-0.50298 0.22576,-0.0346 0.54902,-0.27948 0.71833,-0.5442 0.16932,-0.2647 0.83294,-1.03559 1.47472,-1.71307 0.66921,-0.70645 1.12143,-1.36103 1.06034,-1.53484 -0.0586,-0.16669 -0.0164,-0.47919 0.0942,-0.69445 0.13201,-0.25743 0.12856,-0.56415 -0.01,-0.89618 -0.16311,-0.39072 -0.13497,-0.58746 0.12443,-0.87061 0.18431,-0.20121 0.34664,-0.30821 0.36073,-0.23778 0.0148,0.0704 0.0405,0.20366 0.0586,0.29609 0.0181,0.0925 0.1534,0.40522 0.30065,0.69511 0.14732,0.28989 0.22191,0.71843 0.16589,0.9523 -0.056,0.23388 -0.0677,0.42524 -0.0257,0.42524 0.25552,0 3.1966,-2.46648 3.54007,-2.96881 0.14748,-0.21573 0.39018,-0.39225 0.53929,-0.39225 0.14912,0 0.38382,-0.148298 0.5216,-0.329568 0.13777,-0.181254 0.67291,-0.634997 1.18914,-1.0083 0.51623,-0.373321 0.78969,-0.678746 0.60768,-0.678746 -0.18202,0 -0.38802,0.100897 -0.45779,0.224065 -0.0698,0.123283 -0.32919,0.224147 -0.57652,0.224246 -0.47149,1.97e-4 -2.27527,0.685839 -2.52684,0.960485 -0.22819,0.249133 -2.95117,0.18973 -2.95117,-0.06436 0,-0.123283 -0.18473,-0.224065 -0.41048,-0.224065 -0.22576,0 -0.41048,-0.100898 -0.41048,-0.224065 0,-0.123283 -0.13645,-0.224065 -0.30312,-0.224065 -0.16673,0 -0.46476,-0.277296 -0.66228,-0.616199 -0.19755,-0.338903 -0.41875,-0.666599 -0.49157,-0.728223 -0.8245,-0.697707 -1.20959,-3.561436 -0.58876,-4.378146 0.49176,-0.64688 1.76619,0.0066 2.1151,1.083619 0.0718,0.221448 0.28099,0.372696 0.46506,0.336106 0.18408,-0.03654 0.43725,0.135133 0.56258,0.381616 0.76061,1.495835 0.76362,1.49911 1.09678,1.197241 0.30727,-0.278399 0.73005,-0.351166 2.73195,-0.470136 0.71628,-0.04263 1.08481,-0.21791 1.64192,-0.781174 0.39508,-0.39946 0.86163,-0.727154 1.03678,-0.728224 0.17516,-0.0011 0.74406,-0.430485 1.26426,-0.954247 1.30574,-1.314712 2.12212,-1.960605 2.47809,-1.960605 0.16589,0 0.41657,-0.151263 0.55708,-0.336105 0.14056,-0.184858 0.35965,-0.342229 0.48691,-0.349718 0.12724,-0.0083 0.55468,-0.455109 0.94977,-0.994705 0.39508,-0.539596 0.78519,-0.987199 0.86688,-0.994688 0.40538,-0.0372 2.04833,-2.165445 2.44111,-3.162224 0.62782,-1.593358 2.18353,-2.475643 2.92942,-1.661336 0.41774,0.45608 0.77821,1.913152 0.54875,2.218248 -0.25388,0.337604 -0.89452,2.824604 -0.76422,2.966847 0.17032,0.185962 0.54571,-0.145996 0.54571,-0.482612 0,-0.16779 0.27275,-0.370473 0.60608,-0.450418 0.33335,-0.07999 0.83656,-0.343232 1.11825,-0.585139 0.36042,-0.309524 0.67195,-0.396019 1.05162,-0.291994 0.44194,0.121142 0.68224,-0.0049 1.32884,-0.693659 0.59752,-0.636987 0.90542,-0.811607 1.26694,-0.718528 0.37808,0.09728 0.6059,-0.05745 1.09332,-0.74251 0.7724,-1.085678 1.08429,-1.229205 1.58856,-0.730956 0.38709,0.382423 0.42091,0.367691 1.01644,-0.442748 0.52399,-0.713097 0.737,-0.838338 1.42573,-0.838338 0.44535,0 0.92126,-0.09579 1.0576,-0.212822 0.13628,-0.117028 0.62851,-0.570787 1.09373,-1.008317 0.46521,-0.437514 1.02984,-0.795478 1.25475,-0.795478 0.22492,0 0.64425,-0.256902 0.93185,-0.570886 0.30833,-0.336632 0.57615,-0.476819 0.65268,-0.341652 0.081,0.143034 0.49309,0.0209 1.09567,-0.324765 2.26276,-1.297808 3.29773,-1.707981 3.70672,-1.46902 0.31848,0.186076 0.54604,0.100897 1.16467,-0.435802 0.42288,-0.366885 0.92655,-0.667059 1.11929,-0.667059 0.19274,0 0.51762,-0.201664 0.72193,-0.448146 0.46902,-0.5658 0.71833,-0.570392 0.71833,-0.01317 0,0.617055 0.37403,0.790901 0.79876,0.37128 0.19931,-0.196923 0.44019,-0.358046 0.5353,-0.358046 0.0951,0 0.34651,-0.17151 0.55869,-0.38114 0.2412,-0.238318 0.65884,-0.361058 1.11451,-0.327563 0.40081,0.02946 0.84667,-0.05333 0.99079,-0.183854 0.18068,-0.163773 0.43276,-0.166588 0.81166,-0.0099 0.41141,0.170769 0.69461,0.146162 1.12636,-0.09744 0.54071,-0.30526 0.60707,-0.290414 1.06143,0.237611 0.28616,0.332518 0.63365,0.5207 0.84838,0.459405 0.24703,-0.07061 0.36371,0.02354 0.36371,0.29308 0,0.333423 -0.15077,0.384612 -0.94261,0.319893 -0.6547,-0.05349 -1.04015,0.02946 -1.26201,0.271699 -0.17571,0.191804 -0.49039,0.299944 -0.69934,0.240294 -0.20893,-0.05959 -0.37989,-0.03753 -0.37989,0.04905 0,0.203194 -3.32493,2.038934 -3.71001,2.048317 -0.16065,0.0033 -0.47142,0.155214 -0.69053,0.336105 -0.21915,0.180941 -0.55303,0.328979 -0.74199,0.328979 -0.18895,0 -0.58258,0.205268 -0.87472,0.456162 -0.73858,0.634256 -2.61384,1.32133 -4.51906,1.655707 -1.27492,0.223752 -1.70048,0.399146 -2.0524,0.845828 -0.57635,0.731564 -1.87396,1.5237 -2.49598,1.5237 -0.26909,0 -0.53666,0.08378 -0.59458,0.18606 -0.13234,0.233792 -3.29143,2.278719 -3.52026,2.278719 -0.0928,0 -0.79353,0.352912 -1.557,0.784237 -0.76344,0.43134 -1.53138,0.784251 -1.70654,0.784251 -0.17516,0 -0.31848,0.09826 -0.31848,0.218305 0,0.266217 -1.08542,0.902037 -1.53986,0.902037 -0.18086,0 -1.10016,0.554574 -2.04292,1.232381 -0.94274,0.677808 -1.86147,1.232382 -2.04163,1.232382 -0.18015,0 -0.32753,0.106823 -0.32753,0.237298 0,0.130525 0.10814,0.164432 0.2401,0.07522 0.16378,-0.110444 0.19638,-0.03753 0.10271,0.229167 -0.0756,0.215161 -0.13744,0.517393 -0.13744,0.671636 0,0.154226 -0.14632,0.280422 -0.32524,0.280422 -0.22925,0 -0.29847,-0.15291 -0.23451,-0.518247 0.0907,-0.518232 0.0907,-0.518232 -0.4444,-0.06402 -0.29433,0.249824 -0.90457,0.759184 -1.35611,1.131912 -0.45152,0.372728 -0.89303,0.818208 -0.98113,0.989948 -0.23846,0.464853 -1.17388,3.65575 -1.17388,4.004298 0,0.165963 -0.12345,0.413664 -0.27446,0.550427 -0.15094,0.13678 -0.38899,0.829725 -0.52897,1.539915 -0.1399,0.71017 -0.44035,1.8191 -0.66747,2.46428 -0.22714,0.6452 -0.43728,1.60309 -0.46696,2.12868 -0.0297,0.52557 -0.2503,1.40932 -0.49021,1.96389 -0.23995,0.55458 -0.43829,1.1894 -0.44076,1.41071 -0.002,0.22132 -0.23541,0.87592 -0.5176,1.45467 -0.28222,0.57875 -0.51312,1.22359 -0.51312,1.43296 0,0.20938 -0.0923,0.44301 -0.20523,0.51917 -0.11292,0.0762 -0.20523,0.39391 -0.20523,0.7061 0,0.3122 -0.18347,0.82226 -0.4077,1.13346 -0.22422,0.31121 -0.36086,0.64858 -0.30361,0.74968 0.1348,0.23811 -0.58715,3.02423 -1.02516,3.95627 -0.18599,0.39583 -0.41004,1.21589 -0.49785,1.82235 -0.0877,0.60646 -0.35146,1.45756 -0.5859,1.89134 -0.23443,0.43378 -0.53545,1.37828 -0.66896,2.09888 -0.13349,0.72059 -0.36854,1.52638 -0.52229,1.79063 -0.40607,0.69783 -1.05761,2.94461 -1.19272,4.11298 -0.19497,1.68585 -0.51047,2.57145 -1.15696,3.24765 -0.33934,0.35495 -0.617,0.85931 -0.617,1.1208 0,0.26148 -0.13563,0.67116 -0.30133,0.91037 -0.16573,0.23922 -0.30427,0.84591 -0.30785,1.34819 -0.0115,1.63036 -1.92396,2.85506 -4.93229,3.15875 -0.73371,0.0741 -1.44986,0.23437 -1.59139,0.35622 -0.31391,0.27022 -11.28922,0.43389 -11.43826,0.17057 z m 10.15632,-3.94188 c 0.84659,-0.0622 1.724,-0.20231 1.94977,-0.3115 0.22576,-0.10913 0.81765,-0.26053 1.31531,-0.33631 0.93306,-0.14204 2.07113,-0.73946 2.07113,-1.08714 0,-0.10847 0.17322,-0.46484 0.38497,-0.79195 0.21172,-0.32712 0.45243,-0.94769 0.53492,-1.37901 0.0825,-0.43134 0.36216,-1.25216 0.6215,-1.82407 0.25934,-0.5719 0.58804,-1.63064 0.73042,-2.35274 0.14237,-0.7221 0.32327,-1.41373 0.40198,-1.53696 0.0786,-0.12329 0.3096,-0.82907 0.51307,-1.5685 0.20349,-0.73943 0.53362,-1.70607 0.73364,-2.14809 0.20003,-0.44201 0.56208,-1.65199 0.80454,-2.68883 0.24247,-1.03684 0.51399,-1.986 0.60332,-2.10923 0.0894,-0.12329 0.22943,-0.82791 0.3113,-1.56593 0.082,-0.73973 0.32927,-1.61855 0.551,-1.95847 0.2212,-0.33915 0.4575,-0.99571 0.5251,-1.45904 0.0677,-0.4633 0.29398,-1.20339 0.50307,-1.64461 0.43514,-0.91828 0.73418,-2.01508 1.70554,-6.25596 0.38109,-1.66372 0.91715,-3.57952 1.19122,-4.25733 1.13628,-2.809988 1.17995,-3.987295 0.12839,-3.459846 -0.96392,0.483485 -0.96511,0.484341 -2.84823,2.059416 -0.92087,0.77024 -1.72458,1.40043 -1.78607,1.40043 -0.0614,0 -0.28814,0.24477 -0.50368,0.54396 -0.21555,0.29917 -0.73458,0.6674 -1.15335,0.81831 -0.41881,0.15093 -0.93201,0.5111 -1.1405,0.80046 -0.20849,0.28936 -0.54887,0.52612 -0.75642,0.52612 -0.40156,0 -1.44001,1.19269 -1.44001,1.6539 0,0.39311 -1.33428,1.9312 -1.67528,1.9312 -0.40806,0 -0.91033,0.71392 -0.8276,1.17637 0.0665,0.37143 -0.14881,0.49148 -0.73172,0.40833 -0.17151,-0.0245 -0.24064,0.2118 -0.20524,0.70168 0.0512,0.70841 0.0192,0.74313 -0.78294,0.85059 -0.65689,0.0881 -0.98673,0.30433 -1.53747,1.00832 -0.38565,0.49295 -1.01802,1.19877 -1.40529,1.56849 -0.38724,0.36971 -0.77919,0.77304 -0.87098,0.89627 -0.0918,0.12329 -0.40735,0.55178 -0.70131,0.95231 -0.29393,0.40051 -0.63055,0.72822 -0.74802,0.72822 -0.3361,0 -2.8285,2.81595 -2.8285,3.19567 0,0.18748 -0.2192,0.40093 -0.48713,0.47435 -0.28136,0.077 -0.59411,0.41546 -0.74042,0.80108 -0.13924,0.36718 -0.40497,0.72122 -0.59037,0.78676 -0.1854,0.0655 -0.68069,0.49743 -1.10061,0.95975 -2.15247,2.36973 -3.23866,3.66587 -3.23866,3.86462 0,0.12147 -0.4156,0.64771 -0.92359,1.16959 -0.66389,0.68207 -0.92356,1.12367 -0.92356,1.57061 0,0.36172 -0.11193,0.62176 -0.2676,0.62176 -0.63444,0 -2.81099,3.1143 -2.81099,4.02206 0,0.32658 -0.11045,0.71438 -0.24553,0.86181 -0.33013,0.36041 0.29352,0.86617 1.30292,1.05657 0.50038,0.0943 0.78395,0.28507 0.85306,0.57356 0.08,0.33396 0.30607,0.44171 0.995,0.47418 0.49032,0.023 1.21472,0.08 1.60982,0.12625 3.15529,0.36993 9.02395,0.43915 12.93008,0.15242 z M 6.941879,74.299148 c -0.59901,-0.30544 -0.695109,-0.62818 -0.382755,-1.28548 0.445872,-0.93828 0.517234,-1.57537 0.231512,-2.06693 -0.321107,-0.55243 -0.587081,-2.15164 -0.543476,-3.26763 0.02467,-0.6307 -0.108881,-0.91057 -0.715655,-1.49992 -0.961047,-0.93344 -1.256102,-2.34156 -0.798774,-3.81217 0.168713,-0.54252 0.306748,-1.32983 0.306748,-1.74959 0,-0.41975 0.07892,-0.81646 0.175444,-0.88156 0.197478,-0.13332 1.12937,-2.74226 1.173211,-3.28464 0.07357,-0.91037 0.327167,-2.00112 0.465229,-2.00112 0.08436,0 0.259842,-0.42853 0.389976,-0.95229 0.130125,-0.52377 0.611074,-1.57816 1.068765,-2.34311 0.457692,-0.76495 0.832165,-1.4771 0.832165,-1.58258 0,-0.10551 0.2869,-0.48793 0.637544,-0.84989 0.350652,-0.36196 0.936001,-1.31351 1.300758,-2.11457 0.364767,-0.80104 0.859378,-1.85978 1.099145,-2.35272 0.239767,-0.49295 0.704199,-1.55168 1.032055,-2.35274 0.327866,-0.80104 0.802602,-1.9606 1.054969,-2.5768 0.252376,-0.61619 0.572758,-1.27159 0.711981,-1.45645 0.139214,-0.18486 0.375897,-0.68902 0.525961,-1.12034 0.150063,-0.43134 0.38368,-0.9355 0.519138,-1.120358 0.135459,-0.184858 0.297541,-0.70332 0.360177,-1.152157 0.09775,-0.700522 0.780432,-2.587322 1.377002,-3.805812 0.09817,-0.200495 0.241346,-0.755053 0.318169,-1.232382 0.07683,-0.477313 0.253655,-1.069497 0.392923,-1.31598 0.407946,-0.721953 1.156348,-3.258298 1.028218,-3.484635 -0.06459,-0.11423 0.03656,-0.561948 0.224818,-0.995099 0.188271,-0.433153 0.291926,-0.997865 0.230352,-1.254916 -0.06159,-0.257067 0.05461,-1.038142 0.258272,-1.735717 0.591154,-2.025259 0.688034,-3.069112 0.403882,-4.351695 -0.318414,-1.437253 -0.802919,-2.168192 -0.802919,-1.211295 0,0.369846 -0.20342,0.824708 -0.505506,1.130347 -0.472395,0.47797 -0.484523,0.544155 -0.185259,1.01062 0.296752,0.462549 0.33906,0.471043 0.576986,0.115876 0.583616,-0.871373 0.984894,0.307664 0.409796,1.204072 -0.175834,0.274069 -0.35839,0.717639 -0.405678,0.985701 -0.102458,0.580827 -0.506058,1.100589 -0.506058,0.651702 0,-0.220312 -0.22432,-0.25761 -0.891952,-0.148301 -1.120444,0.183443 -1.561581,-0.231768 -1.190618,-1.120637 0.129472,-0.310248 0.235413,-0.796696 0.235413,-1.080986 0,-0.532419 0.839648,-1.7027 1.221632,-1.7027 0.58251,0 0.127667,-0.680621 -0.59725,-0.893741 -0.446761,-0.131347 -0.867814,-0.336877 -0.935684,-0.456769 -0.217207,-0.38369 -0.870716,-0.234435 -1.498418,0.342195 -0.335386,0.30809 -0.689521,0.560169 -0.786981,0.560169 -0.33134,0 -2.270995,2.349119 -2.627144,3.181729 -0.405641,0.948337 -0.297324,1.299668 0.400725,1.299668 0.268876,0 0.543458,0.09645 0.610176,0.214289 0.06667,0.11785 0.236447,0.166044 0.377167,0.107152 0.140729,-0.05893 0.437935,0.03868 0.660458,0.217102 0.589385,0.472441 -0.229726,0.771891 -1.9148,0.700011 -2.458884,-0.104847 -3.130236,-1.645436 -1.532662,-3.516994 0.280742,-0.328896 0.447305,-0.709508 0.370146,-0.845827 -0.07719,-0.136286 -0.05996,-0.220115 0.03828,-0.186258 0.0982,0.03391 0.728482,-0.575625 1.400623,-1.354446 0.672132,-0.778802 1.637678,-1.644743 2.145641,-1.92431 0.507973,-0.279583 1.367169,-0.77673 1.909321,-1.10477 0.54217,-0.328057 1.257934,-0.596464 1.590608,-0.596464 0.332673,0 0.604861,-0.09135 0.604861,-0.203096 0,-0.230533 1.399706,0.183542 1.80444,0.533802 1.88209,1.628796 2.427263,4.100405 1.703589,7.723383 -0.259833,1.300838 -0.55116,2.768477 -0.647395,3.261426 -0.175934,0.901182 -1.429342,5.916562 -1.791923,7.170226 -0.106939,0.369716 -0.483499,1.337377 -0.836809,2.150368 -0.559977,1.288526 -0.799699,2.218988 -0.571688,2.218988 0.180252,0 2.392176,-2.481602 2.392176,-2.683841 0,-0.125916 0.161638,-0.42056 0.35917,-0.6546 0.197541,-0.234056 0.699336,-0.826158 1.11511,-1.315798 0.415764,-0.489642 0.893639,-1.230819 1.061944,-1.647099 0.168305,-0.416264 0.774799,-1.296887 1.347766,-1.956918 0.572966,-0.660048 1.041752,-1.28344 1.041752,-1.385341 0,-0.101885 0.179009,-0.24729 0.397803,-0.323102 0.218786,-0.07588 0.505106,-0.492851 0.636274,-0.926744 0.15156,-0.501344 0.337554,-0.747382 0.510286,-0.675025 0.284669,0.119332 0.744701,-0.517491 1.395625,-1.931718 0.212708,-0.462154 0.508389,-0.840265 0.657065,-0.840265 0.148684,0 0.531557,-0.44604 0.850823,-0.991199 0.319267,-0.545176 0.789657,-1.098252 1.045299,-1.229089 0.255651,-0.130854 0.570636,-0.491436 0.699971,-0.801354 0.129345,-0.309918 0.402158,-0.563479 0.606258,-0.563479 0.213652,0 0.32909,-0.119496 0.272097,-0.28164 -0.05443,-0.154886 0.109669,-0.381782 0.364703,-0.504159 0.255025,-0.122459 0.587654,-0.506775 0.739161,-0.85422 0.35804,-0.821056 2.824991,-3.513571 3.219222,-3.513571 0.16723,0 0.304057,-0.106493 0.304057,-0.236492 0,-0.130031 0.554147,-0.83029 1.231436,-1.5560774 0.67729,-0.72577 1.231436,-1.403413 1.231436,-1.505858 0,-0.10238 0.415484,-0.385303 0.9233,-0.628593 0.507814,-0.24329 0.883473,-0.558904 0.8348,-0.701378 -0.110889,-0.324551 0.526307,-0.973357 0.95594,-0.973357 0.176807,0 0.538964,-0.250334 0.804797,-0.556302 0.265831,-0.305968 0.576559,-0.558031 0.690509,-0.56017 0.11395,-0.0016 0.322538,-0.205532 0.463528,-0.452015 0.140993,-0.246466 0.476579,-0.448129 0.74575,-0.448129 0.269168,0 0.546882,-0.163609 0.617138,-0.363429 0.09645,-0.274399 0.285572,-0.328963 0.772044,-0.222732 1.062056,0.2319 1.191011,0.472342 1.07604,2.00633 -0.05692,0.759381 -0.122361,1.806839 -0.145421,2.327688 -0.03029,0.683765 -0.165778,1.041943 -0.487481,1.288673 -0.245046,0.187936 -0.505918,0.669265 -0.579713,1.0696464 -0.214792,1.165308 -2.033622,5.357689 -2.389638,5.508097 -0.09724,0.04115 -0.176801,0.274415 -0.176801,0.518511 0,0.244113 -0.230893,0.994935 -0.513097,1.668496 -0.282205,0.673562 -0.513099,1.310154 -0.513099,1.414656 0,0.104519 -0.123595,0.301969 -0.274641,0.438831 -0.15105,0.136779 -0.387119,0.658697 -0.524589,1.15963 -0.137471,0.500932 -0.381401,0.965867 -0.54207,1.03317 -0.160663,0.06732 -0.499163,0.591345 -0.75221,1.164519 -0.253049,0.573173 -0.842498,1.604699 -1.309885,2.292251 -0.467388,0.687567 -1.097362,1.788222 -1.399939,2.445917 -0.302581,0.657693 -0.823337,1.535501 -1.157235,1.950679 -0.333899,0.415178 -0.607089,0.850865 -0.607089,0.968188 0,0.117358 -0.438699,0.702185 -0.974886,1.299702 -0.536189,0.597501 -1.170928,1.329856 -1.410532,1.627462 -0.239605,0.29759 -1.117005,1.25424 -1.949777,2.125877 -2.667402,2.79191 -2.518382,2.49872 -2.113203,4.15752 0.191836,0.78536 0.368259,1.57915 0.392062,1.76401 0.139477,1.08317 0.387499,2.1623 0.547949,2.38399 0.101641,0.14041 0.319293,0.94709 0.483689,1.79257 0.418558,2.15265 1.278652,4.80768 1.730937,5.34328 0.209588,0.24819 0.523521,0.82879 0.697623,1.29022 0.729017,1.93207 2.856136,3.5304 4.698368,3.5304 0.266081,0 0.585976,0.1116 0.710875,0.24793 0.150523,0.16426 0.839094,0.20447 2.042131,0.11916 3.847807,-0.27313 6.539713,-0.0774 7.296884,0.53079 0.305853,0.24564 0.653447,0.44663 0.772433,0.44663 0.222101,0 0.438282,0.10369 1.600947,0.76802 0.369512,0.21113 0.654525,0.30115 0.633359,0.20004 -0.305506,-1.45935 1.981414,-3.04265 2.385769,-1.65174 0.251458,0.86497 0.908414,0.79679 1.829198,-0.1898 0.471781,-0.50549 0.946646,-0.92179 1.055255,-0.92509 0.108617,-0.004 0.6947,-0.50746 1.302426,-1.12034 0.607725,-0.61289 1.184962,-1.11435 1.282745,-1.11435 0.09779,0 0.177792,-0.15572 0.177792,-0.34584 0,-0.19021 0.487073,-0.88185 1.082385,-1.537 2.247355,-2.47322 2.768631,-3.44419 3.035661,-5.65443 0.13194,-1.09212 0.412646,-2.59068 0.623773,-3.33011 0.211126,-0.73943 0.385628,-1.49567 0.387779,-1.68053 0.0022,-0.18485 0.134624,-0.60963 0.294369,-0.94393 0.159758,-0.33432 0.397644,-1.19139 0.528652,-1.9046 0.131002,-0.71321 0.472853,-2.254654 0.759656,-3.425412 0.286801,-1.170756 0.597082,-2.531984 0.689513,-3.024933 0.09244,-0.492966 0.406223,-1.652514 0.697318,-2.576805 1.212158,-3.84882 1.752381,-5.694307 1.752381,-5.9864 0,-0.622025 0.630827,-1.631972 1.019353,-1.631972 0.216204,0 0.449641,-0.09991 0.518748,-0.221958 0.306237,-0.540962 2.139118,1.386148 2.149377,2.259875 0.0038,0.31981 0.199857,0.772187 0.435779,1.005271 0.360947,0.356631 0.40442,0.566392 0.274219,1.323141 -0.0851,0.494611 -0.170737,1.807497 -0.190301,2.917485 -0.03884,2.204504 -0.634181,4.440594 -1.322357,4.966841 -0.20591,0.157519 -0.431947,0.621285 -0.502301,1.030718 -0.07035,0.40945 -0.450491,1.579469 -0.844742,2.600029 -0.39425,1.02058 -0.717259,1.97364 -0.717799,2.11793 -6.15e-4,0.14435 -0.323792,0.64607 -0.718338,1.11507 -0.394545,0.46901 -0.717357,1.07789 -0.717357,1.35306 0,0.5185 -0.469723,1.65401 -1.072297,2.59222 -0.190993,0.29736 -0.294549,0.63377 -0.230126,0.74757 0.06442,0.11374 -0.161651,0.52592 -0.502391,0.91578 -0.773678,0.88525 -1.342928,4.01689 -1.065643,5.86248 0.09258,0.61618 0.121308,1.34064 0.06383,1.60989 -0.227737,1.06687 0.948028,6.4514 1.583368,7.25115 0.221267,0.27853 0.402305,0.60101 0.402305,0.7166 0,0.9706 2.747676,3.06144 4.041361,3.07528 0.360205,0.004 0.712151,0.10815 0.782105,0.2317 0.08383,0.14813 0.271397,0.14039 0.550286,-0.0226 0.232701,-0.13596 0.688885,-0.18918 1.013741,-0.11819 0.324853,0.0709 0.590643,0.0405 0.590643,-0.0677 0,-0.10814 0.271235,-0.29978 0.602748,-0.42594 0.335206,-0.12757 0.848361,-0.63461 1.156092,-1.14227 0.594598,-0.98094 0.715928,-1.04162 1.346361,-0.67325 0.526248,0.30747 0.999569,-0.0792 0.851841,-0.696 -0.07262,-0.30318 -0.0023,-0.43991 0.226427,-0.43991 0.182489,0 0.331796,0.1009 0.331796,0.22408 0,0.57288 0.566222,0.12032 1.06671,-0.85254 0.342013,-0.66484 0.985425,-1.41413 1.683376,-1.96039 0.621368,-0.48631 1.134195,-1.01564 1.139612,-1.17627 0.01317,-0.39272 1.081995,-1.8366 1.359438,-1.8366 0.283295,-2e-5 1.113282,-0.95943 1.113282,-1.2869 0,-0.13727 0.345468,-0.63499 0.767707,-1.1059 1.092776,-1.21877 1.487024,-1.89342 1.488574,-2.54729 8.22e-4,-0.37489 0.291719,-0.87464 0.847575,-1.45645 0.465421,-0.48716 1.032221,-1.33949 1.259563,-1.89406 0.22733,-0.55456 0.72438,-1.52364 1.10454,-2.15348 0.52604,-0.87152 0.71255,-1.45159 0.7805,-2.42751 0.0837,-1.2026 0.52912,-2.36515 0.90609,-2.36515 0.0918,0 0.43311,-0.5798 0.75841,-1.28841 0.32531,-0.70862 0.66366,-1.32201 0.7519,-1.36309 0.0882,-0.0412 0.16043,-0.2413 0.16043,-0.44492 0,-0.20364 0.24303,-0.89465 0.54006,-1.535584 0.6591,-1.422211 0.55417,-1.866028 -0.44119,-1.866028 -0.98471,0 -1.86884,-0.531515 -2.26088,-1.359187 -0.47812,-1.009404 0.70965,-2.339621 1.90334,-2.131605 0.42447,0.0739 0.91031,0.03407 1.07963,-0.08855 0.20629,-0.149453 0.22322,-0.224147 0.0513,-0.226451 -0.14111,-0.0016 -0.25655,-0.205087 -0.25655,-0.45157 0,-0.246466 0.0923,-0.44813 0.20524,-0.44813 0.37912,0 0.20975,-0.488802 -0.211,-0.608924 -0.47851,-0.136614 -0.38649,-0.875537 0.16833,-1.35168 1.04778,-0.899223 3.00238,1.269596 1.97947,2.196422 -0.29094,0.263617 -0.29094,0.308947 0,0.48671 0.17646,0.107811 0.32083,0.40527 0.32083,0.661036 0,0.399952 0.0885,0.445677 0.63273,0.326855 0.93065,-0.203211 1.40474,-0.95023 1.41283,-2.226197 0.004,-0.59676 0.178921,-1.445008 0.393231,-1.904593 0.21252,-0.455751 0.73791,-1.610082 1.16753,-2.565184 0.42962,-0.955087 0.84873,-1.73654 0.93135,-1.73654 0.0826,0 0.21385,-0.327695 0.29162,-0.728224 0.18166,-0.935565 0.97953,-2.092364 1.73878,-2.521022 1.59908,-0.902777 2.23819,-0.02486 1.92954,2.650428 -0.20781,1.80116 -0.0926,3.589976 0.1994,3.095677 0.14549,-0.246285 0.21072,-0.249017 0.34353,-0.01481 0.21072,0.372236 0.88118,-0.166867 0.73275,-0.589172 -0.21134,-0.60127 0.66752,-1.221074 1.73143,-1.221074 1.53417,0 1.96237,1.004696 1.09102,2.5599 -0.32408,0.578441 -0.70973,1.297825 -0.85699,1.598642 -0.14726,0.300816 -0.45263,0.54692 -0.6786,0.54692 -0.47016,0 -1.50596,1.136554 -1.93995,2.128675 -0.64472,1.473828 -1.05118,1.998873 -1.6866,2.178629 -0.76101,0.215292 -0.91399,0.493575 -1.26587,2.302751 -0.14383,0.739432 -0.33134,1.44525 -0.41672,1.56848 -0.2919,0.42135 -0.81013,2.4635 -0.93821,3.69716 -0.0704,0.67781 -0.22793,1.5853 -0.35014,2.01662 -0.12222,0.43135 -0.19894,1.27889 -0.1705,1.88347 0.0284,0.60458 -0.0903,1.76414 -0.26387,2.5768 -0.78251,3.66398 -1.00483,7.5363 -0.63158,11.00053 0.0996,0.92429 0.18761,1.78137 0.19561,1.9046 0.0454,0.69911 0.99524,1.45646 1.82663,1.45646 0.27433,0 0.54537,0.12608 0.6023,0.28008 0.0569,0.15406 0.11081,0.0217 0.11973,-0.29418 0.0207,-0.73259 0.96531,-1.72802 1.81614,-1.9138 0.40468,-0.0884 0.60559,-0.24021 0.52408,-0.3961 -0.0727,-0.13908 -0.0529,-0.17402 0.044,-0.0777 0.0969,0.0963 0.29314,-0.055 0.43611,-0.33611 0.18837,-0.37045 0.26194,-0.41078 0.26721,-0.14649 0.004,0.20057 -0.13127,0.49022 -0.30059,0.64363 -0.16932,0.15341 -0.30785,0.40944 -0.30785,0.56893 0,0.1595 -0.0693,0.32362 -0.15393,0.3647 -0.23195,0.11258 -1.39381,1.81102 -1.54784,2.26272 -0.32278,0.94653 -4.23756,1.43575 -4.72134,0.59001 -0.133811,-0.23392 -0.359611,-0.42531 -0.501781,-0.42531 -0.14218,0 -0.25849,-0.18935 -0.25849,-0.42078 0,-0.23142 -0.14015,-0.787 -0.31147,-1.23462 -0.21099,-0.55129 -0.30288,-1.48174 -0.28485,-2.88425 0.0147,-1.13873 -0.0363,-2.82665 -0.11324,-3.75094 -0.0941,-1.13138 -0.028,-2.55912 0.20258,-4.36936 0.18835,-1.47884 0.37885,-3.04173 0.42335,-3.47307 0.43179,-4.18535 0.77939,-6.3453 1.424341,-8.85075 0.62506,-2.428171 0.97396,-4.157699 0.86314,-4.278694 -0.17102,-0.186718 -1.03109,0.36096 -1.35857,0.865102 -0.228641,0.352005 -0.434861,0.410092 -1.065121,0.300058 -0.44313,-0.07736 -0.83663,-0.03917 -0.9087,0.08806 -0.0699,0.123446 -0.37565,0.225809 -0.67941,0.227339 -0.57727,0.0033 -1.25845,0.878616 -1.57057,2.019115 -0.13388,0.48922 -0.34895,1.03953 -1.31146,3.35578 -0.12802,0.30809 -0.31846,0.71141 -0.42318,0.89627 -0.67123,1.18491 -1.04402,2.37771 -1.04402,3.34052 0,0.71585 -0.11039,1.18603 -0.32387,1.37946 -0.4531,0.41054 -1.35872,2.42119 -1.20936,2.68505 0.0679,0.11982 -0.25108,0.64546 -0.70877,1.16795 -0.45769,0.5225 -0.833161,1.06367 -0.834378,1.20264 -0.0013,0.13892 -0.140746,0.37818 -0.310071,0.5316 -0.169323,0.1534 -0.307859,0.52269 -0.307859,0.82059 0,0.55558 -0.683747,2.21432 -0.969398,2.35172 -0.08768,0.0422 -0.31955,0.45482 -0.515267,0.91695 -0.195715,0.46216 -0.495877,0.84027 -0.667026,0.84027 -0.171151,0 -0.311182,0.0951 -0.311182,0.21141 0,0.1162 -0.279283,0.39151 -0.620631,0.61164 -0.341345,0.22014 -0.607784,0.55355 -0.592083,0.7409 0.05682,0.67793 -0.02589,0.8731 -0.4292,1.01286 -0.237714,0.0823 -0.410478,0.33901 -0.410478,0.60979 0,0.26824 -0.349964,0.7946 -0.820958,1.23473 -0.451526,0.42196 -0.820957,0.89713 -0.820957,1.05595 0,0.43816 -2.290703,3.03737 -2.676854,3.03737 -0.185963,0 -0.504432,0.20064 -0.707705,0.44585 -0.314747,0.37971 -0.564555,0.43159 -1.68353,0.34967 -1.244488,-0.091 -1.324109,-0.067 -1.506295,0.45616 -0.105785,0.3038 -0.332275,0.60019 -0.503293,0.65865 -0.530161,0.18124 -0.793877,0.31759 -1.733797,0.89645 -0.665169,0.40964 -0.950654,0.48804 -1.061865,0.29159 -0.116041,-0.205 -0.220399,-0.20682 -0.440228,-0.008 -0.573878,0.51998 -2.74646,0.29284 -2.999548,-0.3136 -0.123135,-0.29505 -0.36703,-0.53645 -0.541993,-0.53645 -0.621237,0 -2.808364,-1.35817 -2.697061,-1.67482 0.05891,-0.1676 -0.02166,-0.35867 -0.17903,-0.42459 -0.378966,-0.15883 -1.198613,-1.59892 -1.546973,-2.7181 -0.153437,-0.49295 -0.335438,-0.9971 -0.404444,-1.12033 -0.069,-0.12329 -0.240715,-0.67783 -0.381578,-1.23238 -0.140861,-0.55458 -0.353861,-1.35314 -0.473326,-1.77457 -0.119463,-0.42143 -0.229924,-1.77473 -0.245466,-3.00731 -0.03033,-2.40626 -0.219888,-2.80848 -0.809757,-1.7183 -0.20068,0.37089 -0.451432,0.67436 -0.557222,0.67436 -0.105787,0 -0.457625,0.39979 -0.781853,0.88845 -0.559171,0.84274 -1.945057,2.20225 -3.378856,3.31459 -0.358654,0.27823 -0.882994,0.71442 -1.165197,0.96928 -1.578801,1.42586 -1.470149,1.37404 -2.975971,1.41924 -0.49553,0.0148 -0.629388,0.1279 -0.685742,0.57866 -0.219233,1.75386 -2.185012,1.69255 -3.38941,-0.10567 -0.195265,-0.29155 -0.359198,-0.32236 -0.781771,-0.14699 -0.417003,0.17311 -0.621249,0.13909 -0.927927,-0.15488 -0.862921,-0.82682 -1.314804,-0.95959 -3.105396,-0.91241 -6.017858,0.15851 -8.050145,0.0453 -8.559774,-0.47747 -0.291421,-0.29891 -0.64662,-0.45617 -0.87989,-0.38957 -0.491055,0.14023 -1.065205,-0.19673 -1.065205,-0.62509 0,-0.17874 -0.09693,-0.32498 -0.215414,-0.32498 -0.339833,0 -1.53769,-1.36865 -2.059114,-2.35273 -1.602909,-3.02511 -2.357633,-4.68828 -2.491132,-5.48971 -0.01025,-0.0616 -0.142843,-0.43649 -0.294611,-0.83305 -0.151778,-0.39658 -0.275952,-1.22249 -0.275952,-1.83536 0,-0.61287 -0.08382,-1.17087 -0.186257,-1.23999 -0.24628,-0.16618 -0.790882,-2.22483 -0.914512,-3.457 -0.166745,-1.66185 -0.71502,-1.75639 -2.073535,-0.3576 -0.414576,0.42688 -0.993294,0.84176 -1.286046,0.92197 -0.629688,0.17254 -1.010384,0.48832 -2.386215,1.97935 -0.756666,0.82003 -1.159731,1.09759 -1.519191,1.04618 -0.333544,-0.0477 -0.523475,0.0606 -0.596751,0.34028 -0.08863,0.33812 -1.036119,1.27734 -2.42582,2.40454 -0.787916,0.63908 -1.373374,-1.19364 -0.594874,-1.8622 0.29501,-0.25334 0.790564,-0.89085 1.101222,-1.41669 0.310658,-0.52584 0.854325,-1.25221 1.208143,-1.61418 0.353818,-0.36195 0.643304,-0.7837 0.643304,-0.9372 0,-0.15356 0.179989,-0.34145 0.399981,-0.41768 0.219993,-0.0762 0.455605,-0.32993 0.523593,-0.5638 0.06803,-0.23388 0.280524,-0.48052 0.472287,-0.54814 0.345055,-0.12164 0.910293,-1.00447 1.406473,-2.19672 0.141038,-0.33891 0.353256,-0.61618 0.471589,-0.61618 0.118332,0 0.215148,-0.1144 0.215148,-0.2544 0,-0.901 2.092902,-1.76583 3.180671,-1.31432 0.862045,0.35781 1.07927,0.27991 2.029659,-0.72799 0.493866,-0.523782 1.601629,-1.676218 2.461687,-2.561006 0.997349,-1.026011 1.563748,-1.781524 1.563748,-2.085863 0,-0.262449 0.08627,-0.418963 0.191718,-0.347825 0.245436,0.165617 2.271158,-2.034163 2.271158,-2.466311 0,-0.178982 0.367433,-0.726577 0.81652,-1.216859 0.809525,-0.8838 2.056831,-3.147888 2.056831,-3.733538 0,-0.167509 0.09236,-0.304569 0.205238,-0.304569 0.11288,0 0.20524,-0.135628 0.20524,-0.301376 0,-0.165749 0.184715,-0.483864 0.410478,-0.706925 0.225764,-0.223061 0.410479,-0.506462 0.410479,-0.629778 0,-0.123282 0.228657,-0.551496 0.508125,-0.951514 0.279471,-0.400019 0.701121,-1.266601 0.937001,-1.925744 0.86869,-2.42745 1.63945,-3.993253 2.142949,-4.353422 0.284192,-0.203293 0.516711,-0.527778 0.516711,-0.721064 0,-0.52544 0.832075,-3.020505 1.135936,-3.406204 0.145636,-0.1848584 0.358509,-0.8906804 0.473065,-1.5684884 0.114559,-0.677823 0.271065,-1.408845 0.347799,-1.624515 0.08291,-0.233002 0.0447,-0.392118 -0.09413,-0.392118 -0.1285,0 -0.286799,0.151264 -0.351774,0.336105 -0.06499,0.184859 -0.185246,0.336106 -0.267269,0.336106 -0.08202,0 -0.549296,0.403327 -1.038387,0.896276 -0.489092,0.492949 -0.991861,0.896277 -1.117263,0.896277 -0.125407,0 -0.466249,0.277295 -0.757436,0.616198 -0.291188,0.338905 -1.096793,1.1599774 -1.790237,1.8246004 -0.693444,0.664623 -1.260809,1.290237 -1.260809,1.390246 0,0.256934 -1.003753,1.322563 -1.245763,1.322563 -0.259163,0 -2.653782,2.561545 -2.653782,2.838791 0,0.115711 -0.323253,0.552319 -0.718339,0.970394 -0.395089,0.418058 -0.718337,0.891585 -0.718337,1.052264 0,0.160646 -0.118922,0.292158 -0.264268,0.292158 -0.31435,0 -2.198608,2.040122 -2.198608,2.380474 0,0.347677 -2.111243,2.777052 -2.41156,2.774929 -0.14111,-8.89e-4 -0.256549,0.09892 -0.256549,0.222007 0,0.123118 -0.364141,0.633466 -0.809214,1.134151 -0.445065,0.500702 -0.910802,1.246405 -1.034967,1.657155 -0.124174,0.410751 -0.390275,0.793766 -0.591345,0.851177 -0.339767,0.09695 -2.07974,2.681817 -2.07974,3.089571 0,0.100403 -0.549327,0.812941 -1.220724,1.583252 -0.671407,0.77031 -1.176803,1.478173 -1.123111,1.573014 0.0537,0.09481 -0.187028,0.40219 -0.534923,0.683008 -0.347903,0.280817 -0.952728,1.037183 -1.344055,1.680853 -0.391336,0.64366 -1.032835,1.54224 -1.425559,1.99685 -0.392724,0.45462 -0.71405,1.00254 -0.71405,1.2176 0,0.21507 -0.22284,0.55043 -0.495209,0.74528 -0.27236,0.19483 -0.71072,0.82536 -0.974136,1.40119 -0.263407,0.5758 -0.690147,1.19803 -0.948293,1.3827 -0.258154,0.18467 -0.696224,0.90173 -0.973501,1.5935 -0.277276,0.69177 -0.69031,1.61066 -0.917859,2.042 -1.19967,2.27409 -2.128995,4.01669 -2.569161,4.81749 -0.270954,0.49294 -0.496652,1.11237 -0.50155,1.37646 -0.0045,0.2641 -0.127757,0.52998 -0.273031,0.59084 -1.131102,0.47387 -1.797928,7.25049 -0.897821,9.12415 0.577412,1.20193 0.590474,3.11663 0.04354,6.38598 -0.268006,1.60211 -0.545591,3.28981 -0.616853,3.75045 -0.148204,0.95798 -0.619883,1.31461 -1.288096,0.97388 z m 0.523438,-10.04598 c -0.08563,-0.6586 -0.989166,-0.86044 -0.989166,-0.22098 0,0.5387 0.170781,0.72514 0.664203,0.72514 0.287618,0 0.373258,-0.13283 0.324963,-0.50416 z m 61.066175,-26.06616 c 0.07725,-0.61521 0.33645,-1.20677 0.740328,-1.68953 0.341811,-0.40858 0.67394,-1.098995 0.738064,-1.534253 0.120222,-0.816069 0.211361,-1.059753 0.966372,-2.58398 0.34491,-0.696292 0.461181,-1.379992 0.52112,-3.064257 0.08336,-2.342583 -0.202047,-3.6397 -0.453929,-2.063 -0.07644,0.478465 -0.261764,1.172436 -0.41184,1.542153 -0.469143,1.155712 -0.941742,2.947425 -0.941742,3.57029 0,0.328484 -0.154588,0.919945 -0.34352,1.31435 -0.188939,0.394406 -0.46034,1.221256 -0.603116,1.837454 -0.142771,0.616183 -0.39217,1.523673 -0.55421,2.016613 -0.553192,1.68292 -0.641667,2.79457 -0.170705,2.14484 0.21688,-0.29922 0.447811,-0.97001 0.513178,-1.49068 z M 18.644746,18.823045 c 0.07964,-0.332418 0.0064,-0.448145 -0.283925,-0.448145 -0.434606,0 -0.537372,0.57049 -0.134724,0.747875 0.14111,0.06222 0.268867,0.120979 0.283925,0.13069 0.01497,0.0099 0.07565,-0.18397 0.134715,-0.430436 z M 177.70012,63.078408 c -0.25812,-0.20169 -0.44784,-0.57432 -0.43384,-0.85222 0.0131,-0.2716 -0.17041,-0.94755 -0.40906,-1.50212 -0.23864,-0.55457 -0.43593,-1.33601 -0.43842,-1.73654 -0.004,-0.49574 -0.10271,-0.72822 -0.31237,-0.72822 -0.16932,0 -0.30785,-0.19465 -0.30785,-0.43255 0,-0.278 -0.16501,-0.45815 -0.46178,-0.50417 -1.17056,-0.1815 0.0497,-1.50714 1.55822,-1.69277 1.06352,-0.13085 1.17081,0.0222 1.88169,2.68551 0.39874,1.49385 0.44554,1.50894 2.64487,0.85342 0.77857,-0.23205 1.53484,-0.37195 1.68059,-0.3109 0.14567,0.0611 0.42974,-0.0991 0.63111,-0.3558 0.24731,-0.31536 0.61004,-0.46682 1.11797,-0.46682 0.41353,0 1.01644,-0.15061 1.33977,-0.33473 0.32334,-0.18408 0.84085,-0.33533 1.15008,-0.3361 0.30921,-6.6e-4 1.04807,-0.20298 1.64192,-0.4494 0.59383,-0.24641 1.41475,-0.44807 1.82428,-0.44815 0.40952,-4e-5 1.07615,-0.15142 1.4814,-0.3362 0.40524,-0.18486 1.16144,-0.3361 1.68046,-0.3361 0.51901,0 1.11389,-0.0994 1.32194,-0.22102 0.20805,-0.12164 0.96393,-0.27145 1.67973,-0.3331 0.71581,-0.0616 1.68316,-0.1733 2.1497,-0.24816 0.52377,-0.0841 0.90131,-0.0423 0.987,0.10897 0.0764,0.1348 0.41038,0.2451 0.74235,0.2451 0.332,0 0.60361,0.0901 0.60361,0.2001 0,0.45168 0.72157,0.47096 1.26322,0.0337 0.70714,-0.57077 0.78918,-0.57048 0.78918,0.004 0,0.62611 -1.21487,1.81586 -1.6871,1.65224 -0.20092,-0.0697 -0.3653,-0.0267 -0.3653,0.0953 0,0.3696 -1.25097,1.6141 -1.47235,1.46473 -0.1167,-0.0786 -0.14978,-0.46905 -0.076,-0.89788 0.14895,-0.86674 0.0293,-0.91419 -1.05671,-0.41883 -0.40964,0.18686 -0.90156,0.28543 -1.09317,0.21905 -0.19159,-0.0663 -0.75394,0.13233 -1.24968,0.44179 -0.57355,0.35794 -1.22153,0.56348 -1.78177,0.56521 -0.5023,0.002 -1.25158,0.21369 -1.74454,0.494 -0.60537,0.3442 -1.41716,0.53598 -2.71125,0.64049 -1.20395,0.0973 -2.34742,0.35311 -3.28383,0.73477 -0.79017,0.32205 -1.58527,0.53571 -1.76686,0.47478 -0.18163,-0.0609 -0.44532,0.0406 -0.58605,0.22581 -0.14073,0.18512 -0.72009,0.40381 -1.28747,0.48599 -0.69398,0.10056 -1.24109,0.34968 -1.6716,0.76132 -0.83565,0.79904 -3.23189,1.13476 -3.97202,0.55649 z m -50.33801,-6.61167 c 0,-0.12328 -0.0875,-0.22406 -0.19466,-0.22406 -0.45724,0 -1.24202,-1.08571 -1.24202,-1.71829 0,-0.64311 1.07646,-2.0909 1.55464,-2.0909 0.26718,0 1.52396,-1.26152 1.52396,-1.52969 0,-0.11571 0.41275,-0.55001 0.91722,-0.96493 0.50447,-0.41492 0.9201,-0.85965 0.92358,-0.9883 0.008,-0.30061 1.43434,-1.767 1.90482,-1.95853 0.19754,-0.0805 0.36207,-0.27544 0.36564,-0.43336 0.008,-0.37247 0.93304,-1.5195 1.22488,-1.5195 0.87458,0 2.55,-2.72823 2.02644,-3.29982 -0.69437,-0.75809 0.95304,-2.45973 2.11221,-2.18177 0.47576,0.11406 0.70818,0.0405 1.01773,-0.32225 0.22063,-0.25856 0.48992,-0.4701 0.5984,-0.4701 0.10847,0 0.19723,-0.14452 0.19723,-0.321 0,-0.17656 0.18573,-0.38537 0.41273,-0.46403 0.22701,-0.0787 0.54165,-0.41315 0.69922,-0.74332 0.15752,-0.33018 0.59525,-0.90893 0.97263,-1.28612 0.37739,-0.377187 1.10176,-1.223755 1.60974,-1.881251 0.50796,-0.657497 1.32769,-1.659707 1.82162,-2.227103 0.49393,-0.567413 1.26035,-1.535799 1.70317,-2.151997 0.44281,-0.6162 1.00742,-1.397637 1.2547,-1.736541 0.24727,-0.338904 0.56481,-0.616199 0.70564,-0.616199 0.14089,0 0.38747,-0.327695 0.54812,-0.728223 0.16064,-0.400513 0.95065,-1.483112 1.75555,-2.405739 1.23191,-1.412055 1.71931,-2.469126 0.72172,-1.565245 -0.17655,0.159987 -0.30096,0.178636 -0.30096,0.0451 0,-0.417005 -0.59941,-0.485954 -1.43306,-0.164827 -0.7182,0.276637 -0.82458,0.275534 -0.82458,-0.0083 0,-0.422963 -0.1881,-0.412561 -0.6416,0.03555 -0.22261,0.21995 -0.8273,0.389649 -1.54318,0.433086 -0.64742,0.03934 -1.36736,0.164267 -1.59987,0.277756 -0.23251,0.113572 -0.85981,0.420577 -1.39403,0.682433 -0.6134,0.300668 -1.18444,0.42958 -1.5497,0.349816 -0.46899,-0.102378 -0.62019,-0.02617 -0.79932,0.403031 -0.182,0.436064 -0.39214,0.537456 -1.19298,0.575494 -0.53464,0.02535 -1.25287,0.199128 -1.59607,0.386045 -0.34318,0.186915 -0.7832,0.339841 -0.9778,0.339841 -0.1946,0 -0.46879,0.151264 -0.60932,0.336106 -0.14057,0.184858 -0.43775,0.336105 -0.6605,0.336105 -0.22274,0 -0.65013,0.138919 -0.94975,0.308815 -1.07023,0.60667 -1.57832,0.795429 -2.08405,0.774196 -0.28222,-0.01152 -0.92871,0.04757 -1.43668,0.131842 -1.44761,0.240442 -2.95424,-1.974811 -1.69787,-2.496449 0.2001,-0.08312 0.53216,-0.383295 0.73788,-0.667125 0.48627,-0.670878 1.4208,-0.688473 1.81867,-0.03423 0.28278,0.464969 0.31191,0.46831 0.83301,0.09563 0.297,-0.212446 0.70745,-0.35887 0.91213,-0.325374 0.35903,0.05876 1.57561,-0.295353 2.42455,-0.705707 1.13224,-0.547299 2.07437,-0.907749 2.64802,-1.013107 0.34969,-0.0642 0.87306,-0.304553 1.16302,-0.534049 0.32941,-0.26072 0.72886,-0.375197 1.06462,-0.305129 0.29556,0.06172 0.83446,-0.04971 1.19754,-0.247371 0.36307,-0.197747 0.83066,-0.359544 1.03909,-0.359544 0.20841,0 0.37894,-0.100898 0.37894,-0.224065 0,-0.123283 0.30017,-0.226535 0.66704,-0.229546 0.36684,-0.0033 1.08262,-0.112255 1.59058,-0.24278 0.50797,-0.130525 1.09463,-0.275501 1.30368,-0.322181 0.20907,-0.04674 0.48614,-0.178553 0.61573,-0.293063 0.12953,-0.114559 1.06682,-0.21837 2.08277,-0.230781 1.01593,-0.01152 2.54314,-0.08493 3.3938,-0.16114 1.27754,-0.114393 1.5944,-0.07572 1.82098,0.222321 0.15093,0.19847 0.39385,0.360844 0.53995,0.360844 1.53085,0 -1.14037,3.997814 -4.65418,6.965534 -0.29775,0.25147 -0.59184,0.732717 -0.65351,1.069448 -0.0622,0.339167 -0.34006,0.745374 -0.62313,0.910761 -0.28103,0.164266 -0.56378,0.528304 -0.62833,0.809089 -0.12953,0.563544 -3.21423,3.465295 -3.68374,3.465295 -0.16231,0 -0.63159,0.553537 -1.04294,1.230093 -0.41132,0.676557 -0.92718,1.334865 -1.14632,1.462915 -0.21917,0.12806 -0.58086,0.66993 -0.80379,1.20417 -0.22293,0.53427 -0.73199,1.28451 -1.13126,1.66723 -0.39926,0.38272 -0.72591,0.79202 -0.72591,0.90958 0,0.11752 -0.23766,0.52208 -0.52815,0.89896 -0.7498,0.97285 -0.61414,1.24298 2.03616,4.05459 1.53232,1.6256 2.55844,2.9853 2.46134,3.26154 -0.24477,0.6964 -2.32744,0.20988 -2.32744,-0.5437 0,-0.19114 -1.22061,-0.70121 -1.67802,-0.70121 -0.17318,0 -0.53605,-0.28947 -0.8064,-0.64328 -0.27036,-0.35382 -0.93484,-0.86278 -1.47664,-1.13103 -0.54178,-0.26825 -1.03655,-0.63416 -1.09946,-0.81316 -0.18084,-0.51449 -0.41336,-0.39712 -1.46368,0.73889 -2.08063,2.25039 -3.49713,3.64114 -3.70852,3.64114 -0.12098,0 -0.32032,0.20454 -0.44286,0.45454 -0.12263,0.24999 -0.72613,0.99532 -1.34128,1.65626 -1.51305,1.62568 -0.92523,2.03956 1.3444,0.94658 1.06894,-0.51476 5.94367,-0.59094 9.3384,-0.14584 1.01593,0.13316 2.17041,0.26642 2.56548,0.29609 0.3951,0.0297 1.15215,0.26997 1.68232,0.53401 0.5302,0.26402 1.14318,0.42888 1.3622,0.36635 0.21903,-0.0626 0.46027,-0.005 0.53613,0.12987 0.0759,0.13398 0.40951,0.24359 0.74149,0.24359 0.40585,0 0.6036,0.11274 0.6036,0.34398 0,0.28013 0.0802,0.2972 0.43147,0.0918 0.2373,-0.13859 0.60149,-0.20356 0.80929,-0.14419 0.20884,0.0596 0.52629,-0.0713 0.70972,-0.29252 0.36782,-0.44372 1.49238,-0.7102 1.67036,-0.3958 0.20719,0.36601 -0.60585,1.10784 -1.10092,1.00451 -0.34683,-0.0724 -0.46752,0.006 -0.46752,0.3068 0,0.57073 -0.78361,1.10105 -1.63627,1.10735 -0.39819,0.004 -1.09341,0.0989 -1.54495,0.21322 -0.75546,0.19129 -0.85616,0.15966 -1.26241,-0.39628 -0.4296,-0.58793 -0.45252,-0.59322 -0.85367,-0.19686 -0.34703,0.34288 -0.43949,0.35673 -0.58474,0.0875 -0.27495,-0.50968 -0.86076,-0.60567 -5.10693,-0.83672 -0.56917,-0.0309 -1.22425,0.01 -1.45574,0.0895 -0.26862,0.093 -0.60199,-0.01 -0.92158,-0.28417 -0.44172,-0.37934 -0.56041,-0.39393 -1.00714,-0.12395 -0.57444,0.34722 -1.80195,0.41272 -2.227,0.11884 -0.18009,-0.12443 -0.5929,-0.0431 -1.12882,0.22259 -0.46469,0.23038 -1.08643,0.42109 -1.38163,0.4238 -0.2952,0.004 -0.77156,0.20658 -1.05857,0.45306 -0.56607,0.48614 -0.97018,0.57946 -0.97018,0.22409 0,-0.12329 -0.13859,-0.22409 -0.30787,-0.22409 -0.16932,0 -0.30785,0.0885 -0.30785,0.19689 0,0.10831 -0.2704,0.31918 -0.6009,0.46863 -0.33048,0.14945 -0.7604,0.46418 -0.95539,0.69938 -0.36747,0.44333 -1.52231,0.59777 -1.52231,0.2036 z m 52.7465,-2.01663 c 0.12082,-0.24647 0.31205,-0.44813 0.42492,-0.44813 0.13201,0 0.1269,0.15983 -0.0148,0.44813 -0.12081,0.24648 -0.31204,0.44814 -0.42492,0.44814 -0.132,0 -0.1269,-0.15982 0.0148,-0.44814 z m -68.24146,-6.55403 c 0.085,-0.40052 0.2595,-1.23238 0.3878,-1.84858 0.1283,-0.61618 0.38258,-1.37242 0.56505,-1.68053 0.18247,-0.30809 0.39148,-0.84089 0.46447,-1.18397 0.0759,-0.35678 0.34991,-0.73186 0.64013,-0.87623 0.31226,-0.15538 0.50743,-0.43898 0.50743,-0.73742 0,-0.26675 0.18514,-0.67909 0.41141,-0.91632 1.02521,-1.0749 2.16847,-2.40211 2.31821,-2.69124 0.0903,-0.17429 0.26209,-0.31689 0.3818,-0.31689 0.11971,0 0.62709,-0.45342 1.12751,-1.0076 0.50041,-0.55416 1.15984,-1.149324 1.46536,-1.322577 1.09099,-0.618669 2.15643,-1.717497 2.9371,-3.029164 0.4361,-0.732717 0.96021,-1.465121 1.16469,-1.627562 0.20447,-0.162456 0.63257,-0.673494 0.95129,-1.135631 0.31873,-0.462137 0.75616,-0.840264 0.97208,-0.840264 0.2159,0 0.445,-0.14929 0.5091,-0.331563 0.11159,-0.317523 1.3026,-1.236925 1.60229,-1.236925 0.47134,0 -0.0479,1.015955 -0.5516,1.079225 -0.31042,0.039 -0.56439,0.149618 -0.56439,0.245709 0,0.09613 -0.31544,0.529391 -0.70093,0.962757 -0.38553,0.433366 -0.79678,1.166906 -0.91393,1.630063 -0.11719,0.463174 -0.35592,1.006341 -0.53064,1.207034 -1.69368,1.945593 -2.18088,2.601016 -2.74589,3.693988 -0.68926,1.33337 -1.39757,1.74371 -1.21556,0.70419 0.12888,-0.73601 -0.37174,-0.75361 -0.54063,-0.0189 -0.0713,0.31 -0.38761,0.66836 -0.74059,0.83894 -0.55626,0.26882 -0.71283,0.46978 -0.56486,0.72502 0.12669,0.21853 -0.78053,1.03799 -1.39377,1.25895 -0.48079,0.17322 -0.74301,0.45038 -0.90446,0.956 -0.12504,0.39163 -0.47877,0.97826 -0.78606,1.30365 -0.93074,0.98556 -1.48228,1.78948 -1.48228,2.16058 0,0.19356 -0.22381,0.67227 -0.49736,1.06382 -0.27355,0.39154 -0.55885,1.06978 -0.63402,1.50719 -0.2001,1.16447 -0.83506,2.19257 -1.35413,2.19257 -0.39033,0 -0.42197,-0.081 -0.28462,-0.72822 z m 131.59261,-5.6975 c 0.0747,-0.22462 0.38507,-0.7613 0.6895,-1.19264 0.30442,-0.43133 0.69861,-1.09407 0.87593,-1.47278 0.36878,-0.78744 0.91346,-1.34727 1.10615,-1.1369 0.15933,0.17388 -0.28694,1.16633 -1.01673,2.26134 -0.0865,0.13003 -0.36695,0.58851 -0.62295,1.019 -0.50841,0.85494 -1.27128,1.24084 -1.0319,0.52198 z m 29.74496,-10.768396 c -0.18009,-0.196577 -0.14962,-1.13499 0.041,-1.263622 0.25539,-0.172315 0.54866,0.148631 0.61453,0.672639 0.0574,0.456887 -0.40038,0.869612 -0.65557,0.590983 z M 80.049093,15.928801 c -0.0691,-0.195129 -0.209533,-0.835506 -0.312065,-1.423048 -0.102527,-0.587559 -0.373219,-1.287176 -0.601527,-1.554727 -0.228308,-0.267535 -0.415105,-0.696094 -0.415105,-0.952355 0,-0.256243 -0.230894,-0.836873 -0.5131,-1.29027 -0.282203,-0.453413 -0.513097,-1.0138144 -0.513097,-1.2453354 0,-0.231538 -0.223589,-0.650304 -0.496863,-0.930578 -0.597686,-0.613023 -0.528898,-1.83362 0.149321,-2.649474 0.425241,-0.511532 1.168507,-0.689691 1.168507,-0.280077 0,0.123283 0.14682,0.224066 0.326271,0.224066 0.443127,0 1.095196,0.893659 1.103577,1.512474 0.0038,0.277279 0.122278,0.504192 0.263377,0.504225 0.329511,9.8e-5 0.418452,1.556537 0.111991,1.959683 -0.167682,0.2205924 -0.165143,0.3685484 0.0095,0.5593154 0.13069,0.142705 0.237598,0.824051 0.237598,1.514186 0,0.690137 0.08049,1.350579 0.178846,1.467656 0.289763,0.344879 0.02953,2.939046 -0.294827,2.939046 -0.152251,0 -0.333372,-0.159658 -0.402475,-0.354787 z"
       style="fill:#000000;stroke-width:0.214448" />
  </g>
</svg>
